<?xml version="1.0" encoding="UTF-8" standalone="no"?>
<!DOCTYPE svg PUBLIC "-//W3C//DTD SVG 1.1//EN" "http://www.w3.org/Graphics/SVG/1.1/DTD/svg11.dtd">
<!-- Created with Vectornator (http://vectornator.io/) -->
<svg height="100%" stroke-miterlimit="10" style="fill-rule:nonzero;clip-rule:evenodd;stroke-linecap:round;stroke-linejoin:round;" version="1.1" viewBox="0 0 1024 1024" width="100%" xml:space="preserve" xmlns="http://www.w3.org/2000/svg" xmlns:vectornator="http://vectornator.io" xmlns:xlink="http://www.w3.org/1999/xlink">
<defs/>
<g id="레이어-1" vectornator:layerName="레이어 1">
<path d="M356.813 165.332C356.813 165.332 408.694 135.908 313.734 190.513L512 76.0435L889.549 294.022C889.549 294.022 889.549 318.043 889.549 427.032C889.549 536.021 889.549 729.978 889.549 729.978L512 947.956L134.451 729.978L134.451 294.022C242.391 355.232 320.021 405.359 378.347 442.053C415.04 465.137 444.093 482.905 468.246 494.771C489.598 505.261 507.121 511.139 522.707 512C559.99 514.06 578.622 495.797 626.029 464.85C775.576 367.229 613.171 473.777 613.171 473.777" fill="none" opacity="1" stroke="#ffffff" stroke-linecap="butt" stroke-linejoin="round" stroke-width="122.828" vectornator:layerName="곡선 1"/>
</g>
</svg>
