<?xml version="1.0" encoding="UTF-8" standalone="no"?>
<!DOCTYPE svg PUBLIC "-//W3C//DTD SVG 1.1//EN" "http://www.w3.org/Graphics/SVG/1.1/DTD/svg11.dtd">
<!-- Created with Vectornator (http://vectornator.io/) -->
<svg height="100%" stroke-miterlimit="10" style="fill-rule:nonzero;clip-rule:evenodd;stroke-linecap:round;stroke-linejoin:round;" version="1.1" viewBox="0 0 512 512" width="100%" xml:space="preserve" xmlns="http://www.w3.org/2000/svg" xmlns:vectornator="http://vectornator.io" xmlns:xlink="http://www.w3.org/1999/xlink">
<defs/>
<path d="M0 0L512 0L512 512L0 512L0 0Z" fill="#ffffff" fill-rule="nonzero" opacity="1" stroke="none"/>
<g id="레이어-1" vectornator:layerName="레이어-1">
<g opacity="1" vectornator:layerName="g">
<path d="M263.776 215.571L263.776 282.487" fill="none" opacity="1" stroke="#3395ff" stroke-linecap="butt" stroke-linejoin="round" stroke-width="27.8775" vectornator:layerName="path"/>
<g opacity="1" vectornator:layerName="g">
<path d="M261.962 54.0655L145.793 122.704L145.793 244.753C169.082 245.102 178.587 245.61 226.734 244.967C230.602 244.915 230.411 244.817 234.283 244.753C298.635 243.693 327.414 243.631 363.244 244.967C365.306 245.043 371.827 245.332 377.922 245.61L377.922 122.704L261.962 54.0655Z" fill="#3395ff" fill-opacity="0" fill-rule="nonzero" opacity="1" stroke="#3395ff" stroke-linecap="butt" stroke-linejoin="round" stroke-width="27.8775" vectornator:layerName="path"/>
<path d="M261.914 191.159L378.005 124.169" fill="#3395ff" fill-opacity="0" fill-rule="nonzero" opacity="1" stroke="#3395ff" stroke-linecap="butt" stroke-linejoin="round" stroke-width="27.8775" vectornator:layerName="path"/>
<path d="M153.736 134.472L261.914 191.159" fill="#3395ff" fill-opacity="0" fill-rule="nonzero" opacity="1" stroke="#3395ff" stroke-linecap="butt" stroke-linejoin="round" stroke-width="27.8775" vectornator:layerName="path"/>
<path d="M261.857 191.159L261.857 245.61" fill="none" opacity="1" stroke="#3395ff" stroke-linecap="butt" stroke-linejoin="round" stroke-width="27.8775" vectornator:layerName="path"/>
</g>
<path d="M86.4499 235.2L173.437 235.382L173.344 279.17L86.3581 278.989L86.4499 235.2Z" fill="#ffffff" fill-rule="nonzero" opacity="1" stroke="#ffffff" stroke-linecap="butt" stroke-linejoin="round" stroke-width="27.8775" vectornator:layerName="path"/>
<path d="M350.098 237.389L437.057 235.2L438.158 278.975L351.2 281.163L350.098 237.389Z" fill="#ffffff" fill-rule="nonzero" opacity="1" stroke="#ffffff" stroke-linecap="butt" stroke-linejoin="round" stroke-width="27.8775" vectornator:layerName="path"/>
<path d="M173.437 219.426L234.029 219.426L234.029 263.215L173.437 263.215L173.437 219.426Z" fill="#ffffff" fill-rule="nonzero" opacity="1" stroke="#ffffff" stroke-linecap="butt" stroke-linejoin="round" stroke-width="27.8775" vectornator:layerName="path"/>
<path d="M289.504 219.426L350.098 219.426L350.098 263.215L289.504 263.215L289.504 219.426Z" fill="#ffffff" fill-rule="nonzero" opacity="1" stroke="#ffffff" stroke-linecap="butt" stroke-linejoin="round" stroke-width="27.8775" vectornator:layerName="path"/>
<path d="M246.806 265.712L277.102 265.882L276.992 285.35L246.696 285.18L246.806 265.712Z" fill="#ffffff" fill-rule="nonzero" opacity="1" stroke="#ffffff" stroke-linecap="butt" stroke-linejoin="round" stroke-width="27.8775" vectornator:layerName="path"/>
</g>
<g fill="#000000" opacity="1" stroke="none" vectornator:layerName="tspan">
<path d="M147.356 389.487C141.241 395.375 134.56 399.451 127.313 401.716C120.067 403.98 112.31 405.113 104.044 405.113C96.6841 405.113 90.0034 404.009 84.0021 401.801C78.0008 399.593 72.8487 396.224 68.5459 391.695C64.2431 387.165 60.9027 381.56 58.5248 374.88C56.1469 368.199 54.958 360.329 54.958 351.271L54.958 332.757C54.958 323.812 56.1469 315.999 58.5248 309.318C60.9027 302.637 64.2714 297.032 68.6308 292.503C72.9903 287.974 78.1706 284.577 84.172 282.312C90.1733 280.048 96.7974 278.915 104.044 278.915C112.537 278.915 119.953 279.963 126.294 282.057C132.635 284.152 138.693 287.464 144.468 291.994L135.806 305.751C130.258 301.222 124.964 298.221 119.925 296.749C114.886 295.277 109.593 294.541 104.044 294.541C99.4017 294.541 95.1272 295.334 91.2207 296.919C87.3141 298.504 83.9172 300.939 81.0298 304.223C78.1423 307.506 75.906 311.696 74.3207 316.791C72.7355 321.887 71.9429 327.945 71.9429 334.965L71.9429 349.063C71.9429 356.083 72.7355 362.141 74.3207 367.236C75.906 372.332 78.1423 376.522 81.0298 379.805C83.9172 383.089 87.3141 385.523 91.2207 387.109C95.1272 388.694 99.4017 389.487 104.044 389.487C109.932 389.487 115.82 388.581 121.708 386.769C127.597 384.957 133.088 381.56 138.184 376.578L147.356 389.487Z"/>
<path d="M257.757 280.784L257.757 354.158C257.757 363.443 256.738 371.313 254.7 377.767C252.662 384.221 249.718 389.487 245.868 393.563C242.018 397.639 237.262 400.583 231.6 402.395C225.939 404.207 219.485 405.113 212.238 405.113C204.991 405.113 198.537 404.207 192.875 402.395C187.213 400.583 182.458 397.639 178.608 393.563C174.758 389.487 171.814 384.221 169.776 377.767C167.737 371.313 166.718 363.443 166.718 354.158L166.718 280.784L183.533 280.784L183.533 352.12C183.533 359.027 184.1 364.887 185.232 369.699C186.364 374.512 188.119 378.418 190.497 381.419C192.875 384.419 195.876 386.599 199.499 387.958C203.123 389.317 207.369 389.996 212.238 389.996C217.107 389.996 221.353 389.317 224.976 387.958C228.6 386.599 231.6 384.419 233.978 381.419C236.356 378.418 238.111 374.512 239.244 369.699C240.376 364.887 240.942 359.027 240.942 352.12L240.942 280.784L257.757 280.784Z"/>
<path d="M284.254 280.784L327.735 280.784C353.665 280.784 366.63 290.748 366.63 310.677L366.63 314.244C366.63 316.961 366.29 319.594 365.611 322.142C364.932 324.689 363.828 327.039 362.299 329.19C360.77 331.342 358.732 333.238 356.184 334.88C353.637 336.522 350.551 337.796 346.928 338.702C354.401 339.834 360.487 342.665 365.186 347.194C369.886 351.724 372.235 358.234 372.235 366.727L372.235 370.973C372.235 381.051 369.036 388.949 362.639 394.667C356.241 400.385 346.361 403.244 333 403.244L284.254 403.244L284.254 280.784ZM301.069 388.637L326.716 388.637C331.471 388.637 335.633 388.383 339.2 387.873C342.766 387.363 345.71 386.429 348.032 385.071C350.353 383.712 352.08 381.872 353.212 379.55C354.344 377.229 354.911 374.257 354.911 370.633L354.911 366.897C354.911 363.16 354.401 359.99 353.382 357.385C352.363 354.781 350.608 352.629 348.117 350.931C345.625 349.233 342.342 348.015 338.265 347.279C334.189 346.543 329.094 346.175 322.979 346.175L301.069 346.175L301.069 388.637ZM301.069 295.221L301.069 332.417L322.809 332.417C326.999 332.417 330.764 332.191 334.104 331.738C337.444 331.285 340.247 330.379 342.512 329.021C344.776 327.662 346.503 325.793 347.692 323.416C348.881 321.038 349.475 317.924 349.475 314.074L349.475 311.017C349.475 307.393 348.938 304.534 347.862 302.439C346.786 300.344 345.088 298.759 342.766 297.683C340.445 296.608 337.529 295.928 334.019 295.645C330.509 295.362 326.376 295.221 321.62 295.221L301.069 295.221Z"/>
<path d="M468.369 280.784L468.369 295.221L408.922 295.221L408.922 333.267L464.803 333.267L464.803 347.704L408.922 347.704L408.922 388.807L469.558 388.807L469.558 403.244L392.107 403.244L392.107 280.784L468.369 280.784Z"/>
</g>
<g fill="#000000" opacity="1" stroke="none" vectornator:layerName="tspan">
<path d="M149.618 458.492C147.687 458.492 145.879 458.04 144.193 457.136C142.507 456.231 141.151 454.936 140.124 453.251C139.098 451.565 138.584 449.588 138.584 447.32L138.584 444.148C138.584 441.941 139.098 439.987 140.124 438.286C141.151 436.585 142.515 435.274 144.216 434.355C145.917 433.435 147.718 432.975 149.618 432.975C151.733 432.975 153.649 433.428 155.365 434.332C157.082 435.236 158.43 436.539 159.411 438.24C160.392 439.941 160.882 441.91 160.882 444.148L160.882 447.32C160.882 449.619 160.392 451.611 159.411 453.297C158.43 454.982 157.082 456.27 155.365 457.159C153.649 458.047 151.733 458.492 149.618 458.492ZM150.124 468.285C147.703 468.285 145.557 467.879 143.687 467.066C141.818 466.254 140.408 465.02 139.458 463.365L141.251 462.4C141.956 463.687 143.105 464.676 144.699 465.365C146.293 466.055 148.101 466.4 150.124 466.4C153.036 466.4 155.289 465.472 156.882 463.618C158.476 461.764 159.273 459.243 159.273 456.055L159.273 454.676L161.296 454.676L161.296 456.285C161.296 458.768 160.821 460.913 159.871 462.722C158.921 464.53 157.603 465.909 155.917 466.859C154.231 467.81 152.3 468.285 150.124 468.285ZM149.986 456.607C151.733 456.607 153.312 456.224 154.722 455.457C156.131 454.691 157.243 453.595 158.055 452.17C158.867 450.745 159.273 449.098 159.273 447.228L159.273 444.193C159.273 442.324 158.859 440.684 158.032 439.274C157.204 437.864 156.085 436.776 154.676 436.01C153.266 435.244 151.702 434.86 149.986 434.86C148.239 434.86 146.653 435.244 145.228 436.01C143.802 436.776 142.676 437.864 141.848 439.274C141.021 440.684 140.607 442.324 140.607 444.193L140.607 447.228C140.607 449.098 141.021 450.745 141.848 452.17C142.676 453.595 143.802 454.691 145.228 455.457C146.653 456.224 148.239 456.607 149.986 456.607ZM159.273 455.274L159.273 439.044L159.503 433.665L161.296 433.665L161.296 455.274L159.273 455.274Z"/>
<path d="M169.618 444.056C169.618 442.094 169.947 440.27 170.606 438.584C171.265 436.899 172.215 435.542 173.457 434.516C174.698 433.489 176.131 432.975 177.755 432.975C178.43 432.975 179.058 433.021 179.64 433.113C180.223 433.205 180.79 433.328 181.341 433.481L180.836 435.32C179.61 435.014 178.506 434.86 177.525 434.86C176.146 434.86 174.958 435.32 173.962 436.24C172.966 437.159 172.208 438.355 171.686 439.826C171.165 441.297 170.905 442.845 170.905 444.469L169.618 444.056ZM168.882 459.779L168.882 433.665L170.721 433.665L170.905 440.332L170.905 459.779L168.882 459.779Z"/>
<path d="M195.548 460.469C193.494 460.469 191.571 460.009 189.778 459.09C187.985 458.17 186.552 456.829 185.479 455.067C184.406 453.304 183.87 451.212 183.87 448.791L183.87 444.653C183.87 442.232 184.406 440.14 185.479 438.378C186.552 436.615 187.985 435.274 189.778 434.355C191.571 433.435 193.494 432.975 195.548 432.975C197.632 432.975 199.571 433.435 201.364 434.355C203.157 435.274 204.59 436.615 205.662 438.378C206.735 440.14 207.271 442.232 207.271 444.653L207.271 448.791C207.271 451.212 206.735 453.304 205.662 455.067C204.59 456.829 203.157 458.17 201.364 459.09C199.571 460.009 197.632 460.469 195.548 460.469ZM195.548 458.584C197.325 458.584 198.95 458.185 200.421 457.388C201.892 456.592 203.065 455.442 203.938 453.94C204.812 452.438 205.249 450.676 205.249 448.653L205.249 444.791C205.249 442.768 204.812 441.006 203.938 439.504C203.065 438.002 201.892 436.853 200.421 436.056C198.95 435.259 197.325 434.86 195.548 434.86C193.77 434.86 192.146 435.259 190.674 436.056C189.203 436.853 188.038 438.002 187.18 439.504C186.322 441.006 185.893 442.768 185.893 444.791L185.893 448.653C185.893 450.676 186.322 452.438 187.18 453.94C188.038 455.442 189.203 456.592 190.674 457.388C192.146 458.185 193.77 458.584 195.548 458.584Z"/>
<path d="M215.271 449.619C215.271 452.377 215.93 454.561 217.248 456.17C218.566 457.779 220.604 458.584 223.363 458.584C225.171 458.584 226.773 458.185 228.167 457.388C229.562 456.592 230.642 455.48 231.409 454.055C232.175 452.63 232.558 451.029 232.558 449.251L233.983 449.527C233.983 451.611 233.531 453.481 232.627 455.136C231.723 456.791 230.451 458.093 228.811 459.044C227.171 459.994 225.279 460.469 223.133 460.469C221.018 460.469 219.217 460.017 217.731 459.113C216.244 458.208 215.126 456.959 214.375 455.366C213.624 453.772 213.248 451.917 213.248 449.803L213.248 433.665L215.271 433.665L215.271 449.619ZM232.558 433.665L234.581 433.665L234.581 459.779L232.788 459.779L232.558 454.446L232.558 433.665Z"/>
<path d="M253.201 432.975C255.132 432.975 256.933 433.443 258.603 434.378C260.274 435.313 261.622 436.669 262.649 438.447C263.676 440.224 264.189 442.324 264.189 444.745L264.189 448.837C264.189 451.289 263.676 453.404 262.649 455.182C261.622 456.959 260.274 458.308 258.603 459.227C256.933 460.147 255.132 460.607 253.201 460.607C251.055 460.607 249.132 460.147 247.431 459.227C245.73 458.308 244.389 456.967 243.408 455.205C242.427 453.442 241.937 451.32 241.937 448.837L241.937 444.745C241.937 442.293 242.427 440.178 243.408 438.401C244.389 436.623 245.73 435.274 247.431 434.355C249.132 433.435 251.055 432.975 253.201 432.975ZM241.477 433.665L243.316 433.665L243.5 439.044L243.5 467.595L241.477 467.595L241.477 433.665ZM252.787 434.86C251.04 434.86 249.462 435.259 248.052 436.056C246.642 436.853 245.531 438.01 244.719 439.527C243.906 441.044 243.5 442.83 243.5 444.883L243.5 448.745C243.5 450.799 243.906 452.584 244.719 454.101C245.531 455.618 246.642 456.775 248.052 457.572C249.462 458.369 251.04 458.768 252.787 458.768C254.534 458.768 256.12 458.369 257.546 457.572C258.971 456.775 260.097 455.618 260.925 454.101C261.752 452.584 262.166 450.799 262.166 448.745L262.166 444.883C262.166 442.83 261.752 441.044 260.925 439.527C260.097 438.01 258.971 436.853 257.546 436.056C256.12 435.259 254.534 434.86 252.787 434.86Z"/>
<path d="M287.821 459.779L278.212 433.665L280.327 433.665L289.751 459.779L287.821 459.779ZM288.464 459.779L296.602 433.665L298.625 433.665L290.349 459.779L288.464 459.779ZM307.406 459.779L305.475 459.779L314.9 433.665L317.015 433.665L307.406 459.779ZM306.762 459.779L304.877 459.779L296.602 433.665L298.625 433.665L306.762 459.779Z"/>
<path d="M339.083 459.779L338.853 454.722L338.853 443.274C338.853 440.638 338.156 438.577 336.761 437.09C335.367 435.604 333.367 434.86 330.762 434.86C328.892 434.86 327.275 435.267 325.911 436.079C324.547 436.891 323.482 438.017 322.716 439.458L320.877 438.539C321.735 436.822 323.045 435.466 324.808 434.47C326.57 433.474 328.601 432.975 330.9 432.975C332.892 432.975 334.639 433.382 336.141 434.194C337.643 435.006 338.807 436.163 339.635 437.665C340.462 439.167 340.876 440.96 340.876 443.044L340.876 459.779L339.083 459.779ZM328.555 460.469C326.838 460.469 325.314 460.124 323.98 459.434C322.647 458.745 321.612 457.802 320.877 456.607C320.141 455.412 319.773 454.063 319.773 452.561C319.773 450.17 320.693 448.255 322.532 446.814C324.371 445.374 326.915 444.653 330.164 444.653L339.957 444.653L339.957 446.584L330.394 446.584C327.451 446.584 325.283 447.121 323.888 448.193C322.494 449.266 321.796 450.722 321.796 452.561C321.796 454.4 322.425 455.864 323.681 456.952C324.938 458.04 326.624 458.584 328.739 458.584L330.44 458.584C331.911 458.584 333.29 458.277 334.578 457.664C335.865 457.051 336.899 456.178 337.681 455.044C338.463 453.91 338.853 452.638 338.853 451.228L340.049 451.642C340.049 453.297 339.643 454.791 338.83 456.124C338.018 457.457 336.884 458.515 335.428 459.296C333.972 460.078 332.294 460.469 330.394 460.469L328.555 460.469Z"/>
<path d="M348.738 444.056C348.738 442.094 349.068 440.27 349.726 438.584C350.385 436.899 351.336 435.542 352.577 434.516C353.818 433.489 355.251 432.975 356.876 432.975C357.55 432.975 358.178 433.021 358.761 433.113C359.343 433.205 359.91 433.328 360.462 433.481L359.956 435.32C358.73 435.014 357.627 434.86 356.646 434.86C355.267 434.86 354.079 435.32 353.083 436.24C352.087 437.159 351.328 438.355 350.807 439.826C350.286 441.297 350.025 442.845 350.025 444.469L348.738 444.056ZM348.002 459.779L348.002 433.665L349.841 433.665L350.025 440.332L350.025 459.779L348.002 459.779Z"/>
<path d="M374.668 460.469C372.615 460.469 370.699 460.001 368.921 459.067C367.144 458.132 365.711 456.768 364.623 454.975C363.534 453.182 362.99 451.044 362.99 448.561L362.99 444.883C362.99 442.4 363.519 440.255 364.577 438.447C365.634 436.638 367.029 435.274 368.76 434.355C370.492 433.435 372.385 432.975 374.438 432.975C376.584 432.975 378.522 433.451 380.254 434.401C381.986 435.351 383.365 436.761 384.392 438.63C385.419 440.5 385.932 442.753 385.932 445.389L385.932 447.412L363.772 447.412L363.772 445.481L383.863 445.481C383.863 443.243 383.472 441.328 382.691 439.734C381.909 438.14 380.806 436.929 379.381 436.102C377.955 435.274 376.308 434.86 374.438 434.86C372.661 434.86 371.059 435.259 369.634 436.056C368.209 436.853 367.082 438.017 366.255 439.55C365.427 441.082 365.013 442.906 365.013 445.021L365.013 448.423C365.013 450.507 365.45 452.316 366.324 453.848C367.197 455.381 368.37 456.553 369.841 457.365C371.312 458.178 372.921 458.584 374.668 458.584C376.63 458.584 378.446 458.07 380.116 457.044C381.787 456.017 382.974 454.569 383.679 452.699L385.564 453.481C384.706 455.718 383.266 457.442 381.243 458.653C379.22 459.863 377.028 460.469 374.668 460.469Z"/>
</g>
</g>
</svg>
